<svg xmlns="http://www.w3.org/2000/svg" viewBox="0 0 1990.80772 1169.8246"><defs><style>.cls-1{font-size:781.10114px;font-family:BebasNeue-Regular, Bebas Neue;}.cls-2,.cls-7{fill:#3782db;}.cls-3{fill:#3f0518;}.cls-4{fill:#1a1615;}.cls-5{fill:#a30001;}.cls-6{fill:#560004;}.cls-7{font-size:1030.72131px;font-family:Bauhaus93, "Bauhaus 93";}.cls-10,.cls-11,.cls-8,.cls-9{fill-rule:evenodd;}.cls-8{opacity:0.1;}.cls-9{fill:#2b2a2a;}.cls-10{fill:#5e5e5e;}.cls-11{fill:#1a1a1a;}</style></defs><g id="object"><text class="cls-1" transform="translate(605.95421 912.23964)">rt<tspan class="cls-2" x="540.52344" y="0">-</tspan><tspan x="751.41211" y="0">ini</tspan></text><path class="cls-3" d="M784.856,1366.85547h7.80517v69.4834h40.49854L831.9248,1443.25H784.856Z" transform="translate(-401.51064 -287.88145)"/><path class="cls-3" d="M901.7915,1406.53418H863.26709v29.80469H905.5127l-1.06885,6.91113h-48.894v-76.39453h48.14161v6.91113H863.26709v25.85645H901.7915Z" transform="translate(-401.51064 -287.88145)"/><path class="cls-3" d="M949.88525,1373.7666h-25.209v-6.91113h58.38818v6.91113H957.78174V1443.25h-7.89649Z" transform="translate(-401.51064 -287.88145)"/><path class="cls-3" d="M1059.75586,1373.7666h-25.209v-6.91113h58.38818v6.91113h-25.28272V1443.25h-7.89648Z" transform="translate(-401.51064 -287.88145)"/><path class="cls-3" d="M1115.01562,1366.85547h7.80518v32.6582h43.12012v-32.6582h7.80469V1443.25h-7.80469v-36.8252H1122.8208V1443.25h-7.80518Z" transform="translate(-401.51064 -287.88145)"/><path class="cls-3" d="M1252.63379,1406.53418h-38.52441v29.80469h42.2456l-1.06885,6.91113h-48.894v-76.39453h48.1416v6.91113h-40.42431v25.85645h38.52441Z" transform="translate(-401.51064 -287.88145)"/><path class="cls-3" d="M1386.61572,1409.27539c0-14.60742.127-28.96094.45508-36.7793h-.36328c-3.15186,11.2168-17.23535,46.67383-26.51856,70.75391h-7.27441c-6.999-19.06445-21.57666-58.64844-25.04346-70.88086h-.27148c.56445,8.77246.80078,26.18945.80078,39.28711V1443.25h-7.5415v-76.39453h11.67236c9.66357,25.07129,21.69434,57.67969,24.43457,66.79883h.20117c1.76856-6.3711,15.8086-42.42383,25.72608-66.79883h11.42236V1443.25h-7.69971Z" transform="translate(-401.51064 -287.88145)"/><path class="cls-3" d="M1434.3457,1366.85547v46.13769c0,19.28418,10.75391,24.36231,21.09668,24.36231,12.17188,0,21.02637-5.31055,21.02637-24.36231v-46.13769h7.89648v45.72168c0,24.2998-13.13378,31.583-29.1416,31.583-15.45312,0-28.86621-7.96192-28.86621-30.72071v-46.584Z" transform="translate(-401.51064 -287.88145)"/><path class="cls-3" d="M1515.92285,1422.39551c2.19238,9.70312,8.73145,15.23144,20.61524,15.23144,13.043,0,18.10644-6.35449,18.10644-14.16308,0-8.18946-3.79492-13.06055-19.92871-17.00782-16.98633-4.19043-23.63867-9.84667-23.63867-20.74121,0-10.62988,7.78808-19.9541,24.4668-19.9541,17.43164,0,24.70312,10.375,25.70605,19.99317h-8.00586c-1.57617-7.5586-6.42969-13.31055-18.0459-13.31055-10.24609,0-15.89648,4.70508-15.89648,12.66211,0,7.84765,4.70019,10.91992,18.46679,14.29883,21.62891,5.32715,25.10059,13.88476,25.10059,23.34082,0,11.72851-8.61035,21.415-26.74316,21.415-19.15137,0-26.7168-10.84571-28.21-21.76465Z" transform="translate(-401.51064 -287.88145)"/><path class="cls-3" d="M1597.542,1366.85547V1443.25h-7.80469v-76.39453Z" transform="translate(-401.51064 -287.88145)"/><path class="cls-3" d="M1688.27441,1422.27637c-3.50683,12.499-12.77832,21.88379-29.46679,21.88379-22.34766,0-33.89453-17.4043-33.89453-38.94532,0-20.68359,11.43359-39.4541,34.127-39.4541,17.1748,0,26.91406,9.667,29.30859,22.43555H1680.544c-3.15137-9.2041-9.16895-15.62988-21.86719-15.62988-18.02344,0-25.50391,16.43554-25.50391,32.45117,0,15.749,7.26563,32.33789,25.94141,32.33789,12.14258,0,17.94629-6.58008,21.33789-15.0791Z" transform="translate(-401.51064 -287.88145)"/><path class="cls-3" d="M1755.9082,1422.39551c2.19239,9.70312,8.73145,15.23144,20.61524,15.23144,13.043,0,18.10644-6.35449,18.10644-14.16308,0-8.18946-3.79492-13.06055-19.92871-17.00782-16.98633-4.19043-23.63867-9.84667-23.63867-20.74121,0-10.62988,7.78809-19.9541,24.4668-19.9541,17.43164,0,24.70312,10.375,25.70605,19.99317h-8.00586c-1.57617-7.5586-6.42969-13.31055-18.0459-13.31055-10.24609,0-15.89648,4.70508-15.89648,12.66211,0,7.84765,4.70019,10.91992,18.4668,14.29883,21.6289,5.32715,25.10156,13.88476,25.10156,23.34082,0,11.72851-8.61133,21.415-26.74414,21.415-19.15137,0-26.7168-10.84571-28.21-21.76465Z" transform="translate(-401.51064 -287.88145)"/><path class="cls-3" d="M1829.72266,1366.85547h28.06054c14.376,0,24.23535,7.998,24.23535,21.708,0,14.26269-10.04785,22.25586-24.93066,22.25586h-19.46875V1443.25h-7.89648Zm7.89648,37.124h19.542c11.48828,0,16.667-5.89941,16.667-15.17871,0-9.83105-6.57421-15.10449-16.24707-15.10449h-19.96191Z" transform="translate(-401.51064 -287.88145)"/><path class="cls-3" d="M1954.21,1406.53418h-38.52441v29.80469h42.24511l-1.06836,6.91113h-48.89355v-76.39453h48.14063v6.91113h-40.42383v25.85645H1954.21Z" transform="translate(-401.51064 -287.88145)"/><path class="cls-3" d="M1994.1377,1418.416l-9.03809,24.834h-7.84375l27.66894-76.39453h9.46094l28.85449,76.39453h-8.40429l-9.27442-24.834Zm29.17285-6.91114c-7.95606-21.5166-12.15821-32.31933-13.74317-37.76172h-.10937c-1.86035,6.09864-6.57422,19.35254-12.99512,37.76172Z" transform="translate(-401.51064 -287.88145)"/><path class="cls-3" d="M2066.97559,1366.85547h7.76953v38.71191c5.918-5.89258,26.64648-25.81738,39.57129-38.71191h10.00293l-33.626,32.38379,35.43848,44.01074h-9.56153l-31.42578-38.95215-10.39941,9.26172V1443.25h-7.76953Z" transform="translate(-401.51064 -287.88145)"/><path class="cls-4" d="M491.233,810.09669c1.93811,9.61644,3.64119,19.05944,5.10943,28.24315L434.377,850.82848c-2.20382-9.03547-4.29131-18.401-6.22942-28.01743-16.60407-82.38518-15.94212-152.01754,1.47845-155.52851S474.62894,727.71151,491.233,810.09669Z" transform="translate(-401.51064 -287.88145)"/><path class="cls-4" d="M430.9312,671.771c-.03769.00759-.07528.015-.11319.02225a9.44489,9.44489,0,0,1-11.0357-7.52342c-.08774-.464-2.175-11.5558-4.30918-28.485a546.0774,546.0774,0,0,1-4.44865-63.60787c-.12532-27.76188,2.68555-50.67529,8.35446-68.10309,3.56991-10.975,8.36444-20.00712,14.2506-26.84545a45.71511,45.71511,0,0,1,25.3016-15.38153,9.44536,9.44536,0,1,1,4.01787,18.45849c-11.54916,2.51389-19.91613,12.17287-25.57885,29.52915-5.04861,15.47328-7.55725,36.34588-7.45613,62.03791a526.04215,526.04215,0,0,0,4.27084,61.30653c2.06566,16.43815,4.13806,27.46929,4.15884,27.57868A9.44613,9.44613,0,0,1,430.9312,671.771Z" transform="translate(-401.51064 -287.88145)"/><path class="cls-5" d="M440.02336,713.56693l-4.13433.83324A22.67321,22.67321,0,0,1,409.181,696.652l-3.26347-16.19251a22.67509,22.67509,0,0,1,17.74821-26.708l4.13433-.83324a22.674,22.674,0,0,1,26.708,17.74821l3.26347,16.19251a22.67488,22.67488,0,0,1-17.74821,26.708Z" transform="translate(-401.51064 -287.88145)"/><path class="cls-4" d="M1557.774,755.90215a70.42172,70.42172,0,0,1-5.69985-17.15039Z" transform="translate(-401.51064 -287.88145)"/><path class="cls-6" d="M952.57679,563.22818a.20646.20646,0,0,1-.343.22877c-17.42231-21.9142-58.46757-42.92019-98.9137-56.028-8.39851-2.72179-82.53938-10.23123-92.1012-10.11914-13.99817.16223-48.31,3.73379-63.61366,6.05576-21.40634,3.246,46.49127-15.88024,23.5446-8.38387a494.2048,494.2048,0,0,0-61.45444,24.83679c-116.55013,56.32285-191.9132,146.90826-181.51486,212.65264a.19949.19949,0,0,1-.38748.095L403.01352,507.54742C389.92015,480.453,463.91629,379.1671,565.06241,329.69663a398.79823,398.79823,0,0,1,65.31379-24.82747A452.53214,452.53214,0,0,1,702.14593,290.52c11.853-1.37537,23.25841-2.196,33.99564-2.50069,8.46265-.24179,16.50792-.16314,24.02916.21652,31.41723,1.58519,53.68265,8.42026,58.85727,19.12822Z" transform="translate(-401.51064 -287.88145)"/><text class="cls-7" transform="translate(37.9044 912.14394)">A</text><path class="cls-2" d="M2359.06505,496.57646a1030.86036,1030.86036,0,0,0-15.0159-120.39185c-.49381-2.66977-24.81133,6.36129-23.4803,13.5564,8.29109,44.82579,14.62923,90.87019,16.091,136.58715-20.28475-1.42154-42.6138,11.48644-51.51639,29.51561-6.22239,12.6014-3.87249,28.53038,10.11286,34.43241,12.37037,5.22005,26.40327-.33724,37.10949-6.79488C2364.53855,564.07543,2361.21948,529.59859,2359.06505,496.57646Zm-48.58445,44.49376a1.24805,1.24805,0,0,0-.12117.078C2308.90727,541.31674,2308.97229,541.28754,2310.4806,541.07022Zm21.018,29.45513a32.93928,32.93928,0,0,1-3.82723,6.154c-.20068.21711-.37149.4069-.5214.57771q-.87321.05193-1.7459.10365c-4.62769-1.32-8.20475-1.05594-12.35134-4.12782-8.77391-6.49956-9.3487-18.84777-4.54932-27.99354.1218-.23212,2.40073-3.76471,2.23681-4.20644.70618-.10094,1.64533-.23234,2.87938-.4019q2.35818.09386,4.71616.18792a31.68906,31.68906,0,0,1,16.12857,7.3046,3.8511,3.8511,0,0,0,2.231.79315C2336.196,556.38519,2334.83352,563.79554,2331.49864,570.52535Z" transform="translate(-401.51064 -287.88145)"/><path class="cls-8" d="M744.4974,869.48245a43.83313,43.83313,0,0,1,4.92049,6.43874,43.81135,43.81135,0,0,1,4.92082-6.43874c19.89778-21.60333,52.9991-17.428,69.0081,4.76,8.94086,12.392,12.76059,43.61272,32.02211,58.2272,8.07167,6.12361,26.41872,13.37325,39.41753,4.72994,15.69029-10.43382,14.98-31.68681,7.45438-41.2176-5.6174-7.1119-16.52836-9.03655-26.96593-.81039,2.73111-16.52512,24.3413-19.14788,36.38958-8.96837,15.58772,13.17074,18.16247,34.63941,11.56309,51.23561-9.39219,23.61822-27.18605,39.61218-62.35592,43.62093-36.07,4.11333-91.21505-20.88881-111.45376-58.80262-20.2377,37.91381-75.38327,62.91595-111.45428,58.80262-35.16884-4.00875-52.96355-20.00271-62.35438-43.62093-6.60092-16.5962-4.02669-38.06487,11.56191-51.23561,12.049-10.17951,33.65862-7.55675,36.38973,8.96837-10.43757-8.22616-21.34938-6.30151-26.96593.81039-7.52667,9.53079-8.23589,30.78378,7.45353,41.2176,13.00018,8.64331,31.34621,1.39367,39.41839-4.72994,19.26152-14.61448,23.08177-45.83524,32.023-58.2272C691.49847,852.05449,724.59928,847.87912,744.4974,869.48245Z" transform="translate(-401.51064 -287.88145)"/><path class="cls-9" d="M734.75846,856.38093c11.94712,12.97027,14.3513,30.85658,7.966,46.34879-17.09728,41.4777-76.42676,69.57-114.4995,65.22854-35.16833-4.00926-52.96321-20.00237-62.3554-43.62093-6.5999-16.59672-4.02515-38.06487,11.5631-51.23561,12.04828-10.17951,33.65845-7.55726,36.38957,8.96888-10.43757-8.22667-21.34887-6.303-26.96594.80988-7.52615,9.53079-8.23589,30.7843,7.45353,41.21657,13.00018,8.64383,31.34723,1.39469,39.41839-4.72857,19.26152-14.61533,23.08177-45.83507,32.023-58.22788C681.75937,838.953,714.86034,834.77759,734.75846,856.38093Z" transform="translate(-401.51064 -287.88145)"/><path class="cls-10" d="M702.00833,848.60389c-50.39718-1.51586-28.5216,76.44027-86.91868,85.0007C685.37419,931.2216,656.82746,853.14259,702.00833,848.60389Z" transform="translate(-401.51064 -287.88145)"/><path class="cls-11" d="M562.6904,911.07311c2.33873,20.34229,28.89878,47.82381,70.207,48.76273,29.14505.66205,70.56464-7.15326,106.13526-49.47879-20.74987,37.24047-75.11786,61.671-110.8076,57.60172-35.16884-4.00977-52.96321-20.00322-62.3554-43.62144A48.43009,48.43009,0,0,1,562.6904,911.07311Z" transform="translate(-401.51064 -287.88145)"/><path class="cls-11" d="M613.82228,882.0706c-10.43757-8.22718-21.34887-6.30254-26.96594.80988a21.09283,21.09283,0,0,0-2.61011,4.357l.00188-.00922C588.92489,865.73108,608.8336,868.07716,613.82228,882.0706Z" transform="translate(-401.51064 -287.88145)"/><path class="cls-9" d="M744.59977,856.38093c-11.94677,12.97027-14.35147,30.85658-7.96571,46.34879,17.09728,41.4777,76.42677,69.57,114.49951,65.22854,35.1685-4.00926,52.96321-20.00237,62.3554-43.62093,6.59989-16.59672,4.02515-38.06487-11.56293-51.23561-12.04845-10.17951-33.65862-7.55726-36.38974,8.96888,10.43757-8.22667,21.349-6.303,26.96593.80988,7.52616,9.53079,8.2359,30.7843-7.45353,41.21657-13.00017,8.64383-31.34723,1.39469-39.41838-4.72857-19.26152-14.61533-23.08177-45.83507-32.023-58.22788C797.59921,838.953,764.49823,834.77759,744.59977,856.38093Z" transform="translate(-401.51064 -287.88145)"/><path class="cls-11" d="M916.66783,911.07311c-2.3389,20.34229-28.899,47.82381-70.2066,48.76273-29.145.66205-70.56464-7.15326-106.13526-49.47879,20.74987,37.24047,75.11786,61.671,110.8076,57.60172,35.16884-4.00977,52.96321-20.00322,62.35489-43.62144A48.39954,48.39954,0,0,0,916.66783,911.07311Z" transform="translate(-401.51064 -287.88145)"/><path class="cls-11" d="M865.5363,882.0706c10.43757-8.22718,21.349-6.30254,26.96593.80988a21.06211,21.06211,0,0,1,2.60961,4.357l-.00137-.00922C890.43369,865.73108,870.525,868.07716,865.5363,882.0706Z" transform="translate(-401.51064 -287.88145)"/><path class="cls-10" d="M745.11178,872.74181c1.53945-24.06289,23.69068-29.15479,38.852-25.40854C773.22255,848.8223,756.21688,853.53976,745.11178,872.74181Z" transform="translate(-401.51064 -287.88145)"/></g></svg>