<svg xmlns="http://www.w3.org/2000/svg" viewBox="0 0 2133.78669 1253.83973"><defs><style>.cls-1{font-size:837.19946px;font-family:BebasNeue-Regular, Bebas Neue;}.cls-1,.cls-3{fill:#fff;}.cls-2,.cls-7{fill:#3782db;}.cls-4{fill:#1a1615;}.cls-5{fill:#a30001;}.cls-6{fill:#560004;}.cls-7{font-size:1104.74731px;font-family:Bauhaus93, "Bauhaus 93";}.cls-10,.cls-11,.cls-8,.cls-9{fill-rule:evenodd;}.cls-8{opacity:0.1;}.cls-9{fill:#2b2a2a;}.cls-10{fill:#5e5e5e;}.cls-11{fill:#1a1a1a;}</style></defs><g id="object"><text class="cls-1" transform="translate(649.47471 977.75526)">rt<tspan class="cls-2" x="579.34277" y="0">-</tspan><tspan x="805.37695" y="0">ini</tspan></text><path class="cls-3" d="M651.13232,990.47119h5.082v45.24365h26.37011l-.80371,4.5H651.13232Z" transform="translate(-278.95745 -303.94347)"/><path class="cls-3" d="M727.27539,1016.30762h-25.085v19.40722h27.50781l-.6958,4.5H697.16553V990.47119h31.34668v4.49951H702.19043v16.83692h25.085Z" transform="translate(-278.95745 -303.94347)"/><path class="cls-3" d="M758.59229,994.9707H742.17822v-4.49951h38.019v4.49951H763.73438v45.24414h-5.14209Z" transform="translate(-278.95745 -303.94347)"/><path class="cls-3" d="M830.13623,994.9707H813.72217v-4.49951h38.019v4.49951H835.27832v45.24414h-5.14209Z" transform="translate(-278.95745 -303.94347)"/><path class="cls-3" d="M866.12012,990.47119h5.082v21.26514H899.2793V990.47119h5.082v49.74365h-5.082v-23.97851H871.20215v23.97851h-5.082Z" transform="translate(-278.95745 -303.94347)"/><path class="cls-3" d="M955.731,1016.30762H930.646v19.40722h27.50781l-.6958,4.5H925.62109V990.47119h31.34668v4.49951H930.646v16.83692h25.085Z" transform="translate(-278.95745 -303.94347)"/><path class="cls-3" d="M1042.97461,1018.09277c0-9.51172.08252-18.85791.29639-23.94873h-.23682c-2.05225,7.3042-11.22266,30.39112-17.26758,46.0708h-4.73633c-4.55713-12.41406-14.04931-38.18847-16.30713-46.15332h-.17675c.36767,5.71192.522,17.05274.522,25.58106v20.57226h-4.91065V990.47119h7.6001c6.29248,16.32471,14.126,37.55713,15.91016,43.49561h.13135c1.15136-4.14844,10.29345-27.624,16.751-43.49561h7.438v49.74365h-5.01367Z" transform="translate(-278.95745 -303.94347)"/><path class="cls-3" d="M1074.05566,990.47119v30.04248c0,12.55664,7.002,15.86231,13.73682,15.86231,7.92578,0,13.69092-3.457,13.69092-15.86231V990.47119h5.14209v29.771c0,15.82324-8.55176,20.56543-18.97559,20.56543-10.0625,0-18.79638-5.18457-18.79638-20.00391V990.47119Z" transform="translate(-278.95745 -303.94347)"/><path class="cls-3" d="M1127.17529,1026.63574c1.42774,6.31836,5.686,9.917,13.42383,9.917,8.49268,0,11.79-4.13769,11.79-9.22168,0-5.332-2.47119-8.5039-12.97656-11.07421-11.06055-2.72852-15.39258-6.41114-15.39258-13.50586,0-6.92139,5.07129-12.99268,15.93164-12.99268,11.35107,0,16.08545,6.75537,16.73828,13.01807h-5.21338c-1.02588-4.92139-4.186-8.66651-11.75-8.66651-6.67187,0-10.35107,3.06348-10.35107,8.24463,0,5.10938,3.061,7.11035,12.0249,9.31055,14.0835,3.46875,16.34424,9.041,16.34424,15.19824,0,7.63672-5.60742,13.94434-17.41406,13.94434-12.47022,0-17.39649-7.0625-18.36817-14.17188Z" transform="translate(-278.95745 -303.94347)"/><path class="cls-3" d="M1180.32275,990.47119v49.74365h-5.082V990.47119Z" transform="translate(-278.95745 -303.94347)"/><path class="cls-3" d="M1239.40381,1026.55859c-2.2832,8.1377-8.32031,14.249-19.18652,14.249-14.55176,0-22.07081-11.333-22.07081-25.35938,0-13.46777,7.44532-25.68994,22.22168-25.68994,11.18311,0,17.52491,6.29443,19.084,14.60889h-5.082c-2.05176-5.99317-5.97022-10.17725-14.23828-10.17725-11.73633,0-16.60694,10.70166-16.60694,21.13037,0,10.25391,4.731,21.05567,16.8916,21.05567,7.90674,0,11.68555-4.28418,13.89356-9.81739Z" transform="translate(-278.95745 -303.94347)"/><path class="cls-3" d="M1283.44482,1026.63574c1.42774,6.31836,5.686,9.917,13.42383,9.917,8.49268,0,11.79-4.13769,11.79-9.22168,0-5.332-2.47119-8.5039-12.97656-11.07421-11.06055-2.72852-15.39258-6.41114-15.39258-13.50586,0-6.92139,5.07129-12.99268,15.93164-12.99268,11.35108,0,16.08545,6.75537,16.73828,13.01807h-5.21338c-1.02588-4.92139-4.186-8.66651-11.75-8.66651-6.67187,0-10.35107,3.06348-10.35107,8.24463,0,5.10938,3.061,7.11035,12.0249,9.31055,14.0835,3.46875,16.34424,9.041,16.34424,15.19824,0,7.63672-5.60742,13.94434-17.41406,13.94434-12.47022,0-17.39649-7.0625-18.36817-14.17188Z" transform="translate(-278.95745 -303.94347)"/><path class="cls-3" d="M1331.51074,990.47119h18.27149c9.36132,0,15.78027,5.20752,15.78027,14.13526,0,9.2871-6.542,14.49121-16.2334,14.49121h-12.67676v21.11718h-5.1416Zm5.1416,24.17236H1349.377c7.481,0,10.853-3.84082,10.853-9.88281,0-6.40185-4.28125-9.83545-10.57959-9.83545h-12.998Z" transform="translate(-278.95745 -303.94347)"/><path class="cls-3" d="M1412.57129,1016.30762h-25.08447v19.40722h27.50732l-.69531,4.5h-31.83692V990.47119h31.34668v4.49951h-26.32177v16.83692h25.08447Z" transform="translate(-278.95745 -303.94347)"/><path class="cls-3" d="M1438.57227,1024.044l-5.88575,16.17089h-5.10742l18.0166-49.74365h6.16016l18.78906,49.74365h-5.47265l-6.03907-16.17089Zm18.99511-4.499c-5.18066-14.01074-7.917-21.04541-8.94824-24.58887h-.07129c-1.21191,3.9712-4.28125,12.60157-8.46191,24.58887Z" transform="translate(-278.95745 -303.94347)"/><path class="cls-3" d="M1486,990.47119h5.05957v25.20654c3.85352-3.83691,17.35059-16.81054,25.7666-25.20654h6.51367l-21.8955,21.08643,23.07519,28.65722H1518.294l-20.4629-25.36328-6.77148,6.03028v19.333H1486Z" transform="translate(-278.95745 -303.94347)"/><path class="cls-4" d="M375.12364,863.664c2.07731,10.30709,3.9027,20.42827,5.47639,30.27156l-66.41579,13.38556c-2.36211-9.68438-4.59951-19.72253-6.67682-30.02962C289.71086,788.98944,290.42035,714.35611,309.092,710.593S357.32707,775.36194,375.12364,863.664Z" transform="translate(-278.95745 -303.94347)"/><path class="cls-4" d="M310.491,715.40381c-.0404.00815-.08068.01611-.12132.02385a10.12322,10.12322,0,0,1-11.82828-8.06375c-.094-.49735-2.33124-12.38573-4.61867-30.53078a585.29789,585.29789,0,0,1-4.76814-68.17615c-.13432-29.75573,2.87843-54.31478,8.95447-72.99423,3.8263-11.76324,8.96517-21.444,15.27407-28.77348A48.99843,48.99843,0,0,1,340.50186,490.403a10.12372,10.12372,0,1,1,4.30644,19.78417c-12.37862,2.69444-21.3465,13.04712-27.41592,31.64993-5.41119,16.58456-8.1,38.95622-7.99162,66.49344a563.822,563.822,0,0,0,4.57757,65.70954c2.214,17.61874,4.43525,29.44212,4.45752,29.55937A10.12454,10.12454,0,0,1,310.491,715.40381Z" transform="translate(-278.95745 -303.94347)"/><path class="cls-5" d="M320.23614,760.2015l-4.43126.89308a24.30159,24.30159,0,0,1-28.62616-19.02288l-3.49785-17.35545a24.30362,24.30362,0,0,1,19.02288-28.62616l4.43126-.89309a24.30249,24.30249,0,0,1,28.62616,19.02289l3.49785,17.35544a24.30339,24.30339,0,0,1-19.02288,28.62617Z" transform="translate(-278.95745 -303.94347)"/><path class="cls-4" d="M1518.26312,805.57722a75.47893,75.47893,0,0,1-6.10921-18.38212Z" transform="translate(-278.95745 -303.94347)"/><path class="cls-6" d="M869.60094,599.06549a.22129.22129,0,0,1-.36761.24519c-18.67357-23.48806-62.66668-46.00269-106.01763-60.05187-9.00169-2.91727-88.46732-10.966-98.71587-10.8459-15.00351.17389-51.7796,4.002-68.18237,6.49069-22.94374,3.47916,49.83025-17.02075,25.23556-8.986A529.69915,529.69915,0,0,0,555.685,552.53816C430.76424,612.90609,349.98862,709.99731,361.13377,780.46342a.21382.21382,0,0,1-.4153.10182l-80.1502-241.17948c-14.03373-29.0403,65.27678-137.60055,173.68717-190.624A427.43971,427.43971,0,0,1,524.26,322.15123a485.03172,485.03172,0,0,1,76.9242-15.37967c12.70424-1.47414,24.92882-2.35375,36.43719-2.68028,9.07044-.25917,17.69351-.17487,25.75493.23207,33.6736,1.699,57.53811,9.025,63.08437,20.502Z" transform="translate(-278.95745 -303.94347)"/><text class="cls-7" transform="translate(40.62608 977.65273)">A</text><path class="cls-2" d="M2377.1026,527.62687a1104.89959,1104.89959,0,0,0-16.09433-129.03834c-.52929-2.86152-26.59327,6.81815-25.16665,14.53,8.88655,48.04515,15.67989,97.39645,17.24667,146.39678-21.74159-1.52364-45.6743,12.31139-55.21627,31.63541-6.66927,13.50643-4.15061,30.57942,10.83916,36.90534,13.2588,5.59494,28.29955-.36147,39.77468-7.28289C2382.9692,599.97358,2379.41175,563.02063,2377.1026,527.62687Zm-52.07377,47.68928a1.339,1.339,0,0,0-.12987.0836C2323.34251,575.58037,2323.4122,575.54908,2325.02883,575.31615Zm22.52755,31.57058a35.30444,35.30444,0,0,1-4.1021,6.596c-.2151.2327-.39818.43612-.55885.6192q-.93593.05566-1.87129.1111c-4.96005-1.41478-8.794-1.13178-13.23841-4.42428-9.404-6.96636-10.02011-20.20141-4.876-30.004.13054-.2488,2.57315-4.0351,2.39745-4.50855.7569-.1082,1.76349-.249,3.08617-.43076q2.52756.10059,5.05488.20141a33.96492,33.96492,0,0,1,17.28691,7.82921,4.12769,4.12769,0,0,0,2.3912.85012C2352.59114,591.731,2351.13077,599.67359,2347.55638,606.88673Z" transform="translate(-278.95745 -303.94347)"/><path class="cls-8" d="M646.57738,927.31481a46.981,46.981,0,0,1,5.27387,6.90116,46.95734,46.95734,0,0,1,5.27423-6.90116c21.32683-23.15488,56.80548-18.67964,73.96424,5.10187,9.583,13.28194,13.677,46.745,34.32192,62.40906,8.65138,6.56339,28.3161,14.33371,42.24848,5.06963,16.81716-11.18316,16.05589-33.96254,7.98975-44.17782-6.02084-7.62268-17.71542-9.68556-28.90261-.8686,2.92726-17.71194,26.08948-20.52307,39.00306-9.61247,16.70723,14.11665,19.46689,37.12719,12.39355,54.91533-10.06674,25.31447-29.13854,42.45711-66.83429,46.75376-38.66052,4.40876-97.76608-22.389-119.45833-63.02579-21.69116,40.63676-80.79726,67.43455-119.45888,63.02579-37.69465-4.29665-56.76737-21.43929-66.83264-46.75376-7.075-17.78814-4.31588-40.79868,12.39228-54.91533,12.91431-10.9106,36.076-8.09947,39.00323,9.61247-11.18719-8.817-22.88269-6.75408-28.90261.8686-8.06724,10.21528-8.8274,32.99466,7.98883,44.17782,13.93385,9.26408,33.59748,1.49376,42.2494-5.06963,20.64488-15.66409,24.73949-49.12712,34.32283-62.40906C589.77209,908.63517,625.25018,904.15993,646.57738,927.31481Z" transform="translate(-278.95745 -303.94347)"/><path class="cls-9" d="M636.139,913.27234c12.80515,13.90179,15.382,33.07269,8.53817,49.67755-18.3252,44.45661-81.9157,74.5665-122.72281,69.91322-37.6941-4.2972-56.767-21.43893-66.83374-46.75377-7.0739-17.78869-4.31424-40.79867,12.39356-54.91533,12.91358-10.9106,36.07579-8.1,39.00305,9.613-11.1872-8.8175-22.88214-6.75573-28.90262.868-8.06668,10.21528-8.82739,32.99521,7.98884,44.17672,13.93385,9.26463,33.59858,1.49487,42.2494-5.06816,20.64488-15.665,24.73949-49.12694,34.32283-62.40979C579.33352,894.59271,614.8118,890.11746,636.139,913.27234Z" transform="translate(-278.95745 -303.94347)"/><path class="cls-10" d="M601.03676,904.93676c-54.01669-1.62473-30.57,81.93018-93.16114,91.10542C583.208,993.488,552.611,909.80143,601.03676,904.93676Z" transform="translate(-278.95745 -303.94347)"/><path class="cls-11" d="M451.71307,971.8925c2.5067,21.80325,30.97428,51.25849,75.24919,52.26484,31.23823.7096,75.63256-7.667,113.75785-53.03233-22.24012,39.91506-80.5128,66.10014-118.76576,61.73865-37.69465-4.29775-56.767-21.43985-66.83374-46.75432A51.90854,51.90854,0,0,1,451.71307,971.8925Z" transform="translate(-278.95745 -303.94347)"/><path class="cls-11" d="M506.51722,940.807c-11.1872-8.81805-22.88214-6.75518-28.90262.868A22.60835,22.60835,0,0,0,474.817,946.345l.002-.00989C479.83171,923.294,501.17026,925.80859,506.51722,940.807Z" transform="translate(-278.95745 -303.94347)"/><path class="cls-9" d="M646.6871,913.27234c-12.80478,13.90179-15.38219,33.07269-8.5378,49.67755,18.32519,44.45661,81.9157,74.5665,122.7228,69.91322,37.69429-4.2972,56.767-21.43893,66.83375-46.75377,7.07389-17.78869,4.31423-40.79867-12.39338-54.91533-12.91376-10.9106-36.076-8.1-39.00323,9.613,11.18719-8.8175,22.88232-6.75573,28.90261.868,8.06669,10.21528,8.8274,32.99521-7.98884,44.17672-13.93384,9.26463-33.59857,1.49487-42.24939-5.06816-20.64488-15.665-24.73949-49.12694-34.32284-62.40979C703.49294,894.59271,668.01466,890.11746,646.6871,913.27234Z" transform="translate(-278.95745 -303.94347)"/><path class="cls-11" d="M831.113,971.8925c-2.50689,21.80325-30.97447,51.25849-75.24882,52.26484-31.23823.7096-75.63255-7.667-113.75785-53.03233,22.24012,39.91506,80.51279,66.10014,118.76575,61.73865,37.69466-4.29775,56.767-21.43985,66.8332-46.75432A51.87547,51.87547,0,0,0,831.113,971.8925Z" transform="translate(-278.95745 -303.94347)"/><path class="cls-11" d="M776.30924,940.807c11.18719-8.81805,22.88232-6.75518,28.90261.868a22.57445,22.57445,0,0,1,2.797,4.66995l-.00147-.00989C802.99474,923.294,781.6562,925.80859,776.30924,940.807Z" transform="translate(-278.95745 -303.94347)"/><path class="cls-10" d="M647.23588,930.80825c1.65-25.79108,25.39213-31.24867,41.64236-27.23337C677.36556,905.17085,659.13854,910.22712,647.23588,930.80825Z" transform="translate(-278.95745 -303.94347)"/></g></svg>